<?xml version="1.0" encoding="UTF-8"?>
<svg xmlns="http://www.w3.org/2000/svg" xmlns:xlink="http://www.w3.org/1999/xlink" width="48pt" height="48pt" viewBox="0 0 48 48" version="1.2">
<defs>
<clipPath id="clip1">
  <path d="M 0.488281 7.066406 L 47.507812 7.066406 L 47.507812 38.660156 L 0.488281 38.660156 Z M 0.488281 7.066406 "/>
</clipPath>
<clipPath id="clip2">
  <path d="M 12 7.066406 L 34 7.066406 L 34 27 L 12 27 Z M 12 7.066406 "/>
</clipPath>
</defs>
<g id="surface1">
<g clip-path="url(#clip1)" clip-rule="nonzero">
<path style=" stroke:none;fill-rule:nonzero;fill:rgb(18.429565%,24.708557%,47.059631%);fill-opacity:1;" d="M 47.410156 21.714844 C 47.269531 23.214844 46.140625 25.53125 44.269531 24.4375 C 43.34375 23.894531 43.355469 22.808594 41.957031 22.847656 C 41.695312 22.855469 41.414062 23.273438 41.097656 23.289062 C 39.734375 23.375 39.082031 23.214844 37.832031 23.761719 C 35.484375 24.78125 33.125 25.808594 30.773438 26.867188 C 30.710938 27.226562 31.089844 27.820312 31.15625 28.164062 C 31.203125 28.386719 31.214844 28.609375 31.214844 28.820312 C 32.15625 29.339844 33.125 29.804688 34.09375 29.980469 C 35.894531 30.320312 37.507812 29.0625 38.820312 30.785156 C 39.976562 32.304688 39.484375 33.210938 38.804688 34.453125 C 38.375 35.242188 38.289062 36.84375 37.332031 37.53125 C 36.371094 38.226562 34.066406 38.234375 33.246094 37.34375 C 32.398438 36.425781 32.78125 34.832031 31.855469 33.925781 C 31.335938 33.40625 30.28125 33.054688 29.636719 32.730469 C 29.328125 32.574219 29.023438 32.414062 28.714844 32.269531 C 28.554688 32.34375 28.398438 32.414062 28.257812 32.519531 C 27.835938 32.785156 27.6875 33.15625 27.304688 33.460938 C 26.355469 34.214844 24.957031 33.953125 23.808594 33.953125 C 23.203125 33.953125 22.492188 34.066406 21.90625 33.925781 C 20.992188 33.714844 20.5625 32.925781 19.808594 32.453125 C 19.714844 32.386719 19.613281 32.332031 19.519531 32.269531 C 18.867188 32.609375 18.214844 32.953125 17.5625 33.304688 C 17.132812 33.535156 16.375 33.796875 16.050781 34.195312 C 14.820312 35.6875 16.050781 37.640625 13.570312 37.957031 C 11.082031 38.269531 10.726562 37.242188 9.878906 35.351562 C 9.484375 34.472656 8.683594 33.925781 8.738281 32.785156 C 8.917969 28.636719 12.75 30.601562 15.191406 29.65625 C 15.808594 29.414062 16.421875 29.144531 17.03125 28.847656 C 17.03125 28.542969 17.085938 28.226562 17.167969 27.867188 C 17.226562 27.636719 17.449219 27.246094 17.503906 26.929688 C 16.621094 26.488281 15.660156 25.957031 14.679688 25.429688 C 14.519531 25.707031 14.34375 25.96875 14.128906 26.199219 C 13.132812 27.3125 12.695312 25.894531 12.527344 24.347656 C 11.398438 23.828125 10.269531 23.402344 9.195312 23.226562 C 8.542969 23.113281 7.863281 23.328125 7.199219 23.289062 C 6.941406 23.273438 6.539062 22.828125 6.363281 22.835938 C 4.703125 22.957031 4.261719 25.28125 2.445312 24.550781 C 1.128906 24.023438 0.515625 21.558594 0.953125 20.308594 C 1.726562 18.121094 3.273438 19.769531 4.441406 19.195312 C 2.371094 16.972656 7.238281 15.785156 8.589844 15.785156 C 8.589844 16.027344 8.589844 16.269531 8.589844 16.519531 C 8.589844 16.277344 8.589844 16.035156 8.589844 15.785156 C 9.71875 15.785156 10.257812 16.324219 10.847656 17.183594 C 11.117188 17.574219 10.867188 17.953125 11.144531 18.316406 C 11.3125 18.527344 11.835938 18.640625 12.058594 18.796875 C 12.253906 18.9375 12.460938 19.066406 12.675781 19.195312 C 12.738281 18.851562 12.871094 18.527344 13.09375 18.25 C 13.503906 17.757812 14 17.519531 14.351562 16.953125 C 14.324219 16.257812 14.304688 15.546875 14.445312 15.027344 C 14.558594 14.628906 14.894531 14.398438 15.015625 14.0625 C 15.144531 13.703125 15.089844 13.277344 15.238281 12.894531 C 15.585938 12.035156 16.285156 11.171875 16.742188 10.339844 C 17.242188 9.429688 18.027344 9.003906 18.96875 8.585938 C 20.890625 7.753906 23.109375 7.066406 25.207031 7.066406 C 27.410156 7.066406 30.644531 8.707031 31.929688 10.429688 C 32.535156 11.246094 32.742188 12.117188 33.132812 13.015625 C 33.320312 13.441406 33.601562 13.710938 33.664062 14.183594 C 33.730469 14.722656 33.488281 15.359375 33.421875 15.886719 C 33.28125 17.074219 33.898438 18.019531 33.917969 19.1875 C 33.925781 19.464844 33.878906 19.890625 33.75 20.234375 C 34.933594 19.734375 36.191406 19.175781 36.890625 18.464844 C 37.832031 17.5 37.664062 15.785156 39.726562 15.785156 C 41.058594 15.785156 45.945312 16.953125 43.875 19.195312 C 44.761719 19.632812 45.640625 18.472656 46.730469 19.335938 C 47.457031 19.917969 47.484375 20.855469 47.410156 21.714844 Z M 47.410156 21.714844 "/>
</g>
<path style=" stroke:none;fill-rule:nonzero;fill:rgb(100%,100%,100%);fill-opacity:1;" d="M 46.703125 20.84375 C 46.171875 18.519531 44.511719 20.722656 43.492188 19.984375 C 43.382812 19.964844 43.28125 19.9375 43.175781 19.898438 C 43.066406 19.863281 42.960938 19.816406 42.871094 19.761719 C 42.765625 19.703125 42.671875 19.660156 42.570312 19.59375 C 42.375 19.484375 42.1875 19.351562 42.011719 19.214844 C 41.835938 19.074219 41.667969 18.917969 41.515625 18.742188 C 41.75 18.796875 41.957031 18.871094 42.167969 18.953125 C 42.375 19.039062 42.582031 19.121094 42.785156 19.214844 C 42.886719 19.261719 42.980469 19.308594 43.082031 19.351562 C 43.09375 19.351562 43.09375 19.363281 43.101562 19.363281 C 42.953125 18.730469 43.773438 18.453125 43.222656 17.574219 C 42.671875 16.683594 40.660156 16.507812 39.746094 16.507812 C 38.085938 16.507812 38.625 17.648438 38.085938 18.464844 C 37.789062 18.910156 37.238281 19.085938 36.789062 19.34375 C 35.894531 19.851562 34.972656 20.316406 34.058594 20.78125 C 34.085938 20.796875 34.105469 20.816406 34.132812 20.835938 C 33.964844 20.910156 33.878906 20.984375 33.796875 20.984375 C 33.777344 20.984375 33.757812 20.964844 33.730469 20.945312 C 33.832031 20.898438 33.925781 20.84375 34.027344 20.796875 C 33.898438 20.863281 33.769531 20.929688 33.628906 21.003906 C 33.648438 21.058594 33.664062 21.121094 33.675781 21.1875 C 33.703125 21.316406 33.738281 21.457031 33.738281 21.585938 C 33.75 21.726562 33.738281 21.855469 33.730469 21.992188 C 33.730469 22.058594 33.730469 22.132812 33.730469 22.195312 C 33.730469 22.234375 33.730469 22.261719 33.722656 22.300781 C 33.722656 22.316406 33.710938 22.335938 33.710938 22.34375 C 33.710938 22.363281 33.703125 22.382812 33.664062 22.390625 L 33.617188 22.410156 C 33.609375 22.410156 33.609375 22.410156 33.609375 22.410156 C 33.609375 22.410156 33.609375 22.402344 33.609375 22.402344 C 33.609375 22.402344 33.609375 22.402344 33.617188 22.402344 L 33.609375 22.402344 C 33.570312 22.382812 33.570312 22.363281 33.5625 22.355469 C 33.5625 22.335938 33.554688 22.316406 33.554688 22.308594 C 33.542969 22.269531 33.542969 22.242188 33.542969 22.207031 C 33.535156 22.140625 33.535156 22.078125 33.527344 22.011719 C 33.507812 21.882812 33.480469 21.753906 33.460938 21.621094 C 33.441406 21.492188 33.441406 21.363281 33.421875 21.234375 C 33.421875 21.195312 33.414062 21.160156 33.414062 21.113281 C 33.367188 21.140625 33.320312 21.160156 33.273438 21.1875 L 33.601562 24.882812 C 33.816406 24.792969 34.019531 24.6875 34.234375 24.597656 C 35.429688 24.058594 36.621094 23.457031 37.84375 22.984375 C 38.550781 22.707031 39.019531 22.714844 39.578125 22.699219 C 39.503906 22.6875 39.417969 22.667969 39.34375 22.640625 C 39.195312 22.59375 39.054688 22.53125 38.925781 22.429688 C 38.792969 22.335938 38.671875 22.195312 38.617188 22.03125 C 38.589844 21.945312 38.570312 21.855469 38.578125 21.769531 C 38.578125 21.6875 38.609375 21.605469 38.636719 21.53125 C 38.699219 21.382812 38.785156 21.269531 38.90625 21.179688 C 38.90625 21.222656 38.914062 21.261719 38.914062 21.296875 C 38.953125 21.261719 38.980469 21.214844 39.007812 21.222656 C 39.09375 21.242188 39.175781 21.296875 39.316406 21.371094 C 39.203125 21.445312 39.128906 21.53125 39.109375 21.511719 C 39.046875 21.472656 38.980469 21.417969 38.925781 21.371094 C 38.925781 21.445312 38.925781 21.511719 38.933594 21.578125 C 38.945312 21.695312 38.980469 21.78125 39.027344 21.855469 C 39.074219 21.929688 39.140625 22.003906 39.222656 22.066406 C 39.308594 22.132812 39.398438 22.1875 39.511719 22.226562 C 39.726562 22.308594 39.976562 22.355469 40.25 22.410156 C 40.464844 22.457031 40.679688 22.503906 40.890625 22.578125 C 41.824219 22.382812 42.246094 21.910156 43.28125 22.464844 C 43.4375 22.402344 43.585938 22.328125 43.746094 22.261719 C 43.753906 22.261719 43.78125 22.300781 43.8125 22.316406 C 43.71875 22.410156 43.625 22.511719 43.53125 22.613281 C 43.949219 22.917969 43.996094 23.308594 44.378906 23.550781 C 45.984375 24.597656 47.054688 22.390625 46.703125 20.84375 Z M 34.289062 21.640625 C 34.242188 21.566406 34.179688 21.492188 34.148438 21.410156 C 34.140625 21.382812 34.214844 21.328125 34.253906 21.28125 C 34.316406 21.335938 34.382812 21.390625 34.484375 21.472656 C 34.394531 21.546875 34.335938 21.59375 34.289062 21.640625 Z M 36.238281 22.179688 C 36.117188 22.269531 35.988281 22.355469 35.855469 22.417969 C 35.792969 22.457031 35.726562 22.484375 35.652344 22.511719 C 35.585938 22.539062 35.511719 22.566406 35.4375 22.578125 C 35.363281 22.585938 35.289062 22.59375 35.203125 22.585938 C 35.121094 22.578125 35.035156 22.558594 34.953125 22.519531 C 35 22.4375 35.054688 22.375 35.109375 22.316406 C 35.167969 22.261719 35.230469 22.214844 35.289062 22.179688 C 35.351562 22.140625 35.417969 22.113281 35.484375 22.085938 C 35.550781 22.058594 35.613281 22.039062 35.6875 22.011719 C 35.828125 21.964844 35.960938 21.929688 36.109375 21.890625 C 36.25 21.863281 36.398438 21.835938 36.566406 21.828125 C 36.464844 21.976562 36.351562 22.085938 36.238281 22.179688 Z M 37.011719 20.835938 C 36.789062 20.964844 36.566406 21.085938 36.332031 21.1875 C 36.21875 21.242188 36.097656 21.289062 35.976562 21.34375 C 35.855469 21.402344 35.746094 21.4375 35.613281 21.472656 C 35.492188 21.511719 35.363281 21.539062 35.230469 21.558594 C 35.101562 21.578125 34.972656 21.585938 34.820312 21.578125 C 34.914062 21.464844 35.015625 21.371094 35.121094 21.296875 C 35.222656 21.214844 35.335938 21.148438 35.445312 21.085938 C 35.558594 21.019531 35.679688 20.972656 35.792969 20.929688 C 35.914062 20.882812 36.023438 20.835938 36.144531 20.789062 C 36.386719 20.707031 36.628906 20.621094 36.882812 20.558594 C 37.132812 20.492188 37.386719 20.4375 37.648438 20.398438 C 37.460938 20.566406 37.238281 20.707031 37.011719 20.835938 Z M 40.613281 19.039062 C 40.511719 18.972656 40.433594 18.851562 40.371094 18.75 C 40.359375 18.730469 40.492188 18.59375 40.519531 18.601562 C 40.640625 18.65625 40.753906 18.742188 40.957031 18.871094 C 40.769531 18.964844 40.648438 19.066406 40.613281 19.039062 Z M 45.835938 21.417969 C 45.695312 21.335938 45.574219 21.234375 45.441406 21.132812 C 45.488281 21.09375 45.546875 21.058594 45.628906 20.992188 C 45.761719 21.09375 45.871094 21.195312 45.992188 21.289062 C 45.9375 21.335938 45.851562 21.429688 45.835938 21.417969 Z M 17.1875 31.664062 L 17.570312 32.304688 C 17.046875 32.609375 16.542969 32.945312 16.097656 33.304688 C 15.136719 34.074219 15.3125 35 14.773438 36.046875 C 14.269531 37.03125 14.429688 37.140625 13.234375 37.242188 C 11.84375 37.363281 11.144531 36.984375 10.726562 35.742188 C 10.652344 35.539062 10.640625 35.25 10.632812 34.964844 C 10.660156 34.992188 10.699219 35.011719 10.726562 35.039062 C 10.820312 35.101562 10.914062 35.167969 11.035156 35.1875 C 11.15625 35.214844 11.285156 35.195312 11.398438 35.15625 C 11.453125 35.140625 11.5 35.121094 11.554688 35.101562 C 11.582031 35.09375 11.601562 35.085938 11.621094 35.066406 L 11.648438 35.046875 C 11.660156 35.039062 11.667969 35.027344 11.667969 34.972656 C 11.640625 34.925781 11.628906 34.917969 11.613281 34.917969 L 11.574219 34.917969 C 11.546875 34.917969 11.519531 34.925781 11.5 34.925781 C 11.453125 34.9375 11.40625 34.953125 11.359375 34.953125 C 11.265625 34.964844 11.191406 34.9375 11.109375 34.90625 C 11.035156 34.878906 10.941406 34.851562 10.855469 34.816406 C 10.808594 34.796875 10.773438 34.769531 10.726562 34.75 C 10.707031 34.742188 10.679688 34.730469 10.652344 34.722656 L 10.632812 34.714844 C 10.632812 34.640625 10.625 34.554688 10.613281 34.480469 C 10.632812 34.5 10.652344 34.519531 10.679688 34.527344 C 10.746094 34.566406 10.808594 34.59375 10.875 34.613281 C 11.003906 34.648438 11.136719 34.6875 11.277344 34.6875 C 11.414062 34.6875 11.546875 34.667969 11.675781 34.628906 C 11.742188 34.613281 11.808594 34.601562 11.871094 34.582031 C 11.902344 34.574219 11.9375 34.566406 11.964844 34.546875 C 11.984375 34.539062 11.992188 34.527344 12.011719 34.519531 C 12.03125 34.507812 12.039062 34.492188 12.039062 34.445312 C 12.011719 34.398438 11.992188 34.398438 11.976562 34.398438 L 11.929688 34.398438 C 11.902344 34.398438 11.863281 34.40625 11.835938 34.40625 C 11.78125 34.417969 11.714844 34.425781 11.660156 34.425781 C 11.535156 34.425781 11.414062 34.417969 11.292969 34.40625 C 11.171875 34.390625 11.0625 34.390625 10.941406 34.371094 C 10.882812 34.363281 10.828125 34.351562 10.773438 34.332031 C 10.746094 34.324219 10.714844 34.324219 10.699219 34.316406 C 10.6875 34.316406 10.667969 34.304688 10.660156 34.296875 C 10.652344 34.289062 10.640625 34.289062 10.605469 34.304688 C 10.585938 34.203125 10.566406 34.109375 10.53125 34.039062 C 10.746094 34.128906 10.976562 34.195312 11.210938 34.203125 C 11.453125 34.214844 11.6875 34.167969 11.910156 34.09375 C 12.023438 34.054688 12.132812 34.019531 12.238281 33.964844 C 12.292969 33.933594 12.339844 33.90625 12.386719 33.878906 L 12.449219 33.824219 C 12.46875 33.804688 12.488281 33.777344 12.488281 33.722656 C 12.441406 33.695312 12.402344 33.695312 12.386719 33.714844 L 12.3125 33.742188 L 12.160156 33.796875 C 12.058594 33.832031 11.964844 33.871094 11.855469 33.890625 C 11.648438 33.933594 11.433594 33.933594 11.230469 33.917969 C 11.023438 33.898438 10.820312 33.859375 10.613281 33.796875 C 10.511719 33.757812 10.417969 33.722656 10.324219 33.675781 C 10.277344 33.648438 10.230469 33.628906 10.183594 33.601562 L 10.109375 33.566406 C 10.101562 33.554688 10.082031 33.554688 10.0625 33.554688 C 9.773438 33.460938 9.570312 33.609375 9.523438 32.703125 C 9.496094 32.25 9.542969 31.886719 9.652344 31.601562 C 9.679688 31.609375 9.710938 31.628906 9.738281 31.636719 C 9.773438 31.65625 9.859375 31.582031 10.007812 31.5 C 9.90625 31.460938 9.820312 31.425781 9.738281 31.386719 C 10.511719 29.980469 13.039062 30.925781 14.398438 30.683594 C 15.015625 30.574219 15.640625 30.351562 16.273438 30.070312 L 16.582031 30.589844 C 16.554688 30.609375 16.527344 30.617188 16.507812 30.636719 C 16.292969 30.765625 16.070312 30.898438 15.863281 31.035156 C 15.648438 31.175781 15.445312 31.324219 15.238281 31.488281 C 15.5 31.453125 15.753906 31.386719 16.003906 31.3125 C 16.246094 31.230469 16.488281 31.136719 16.722656 31.027344 C 16.757812 31.007812 16.785156 30.988281 16.824219 30.980469 L 17.019531 31.292969 C 16.953125 31.339844 16.890625 31.386719 16.824219 31.441406 C 16.683594 31.554688 16.542969 31.675781 16.421875 31.8125 C 16.621094 31.804688 16.796875 31.757812 16.972656 31.710938 C 17.019531 31.730469 17.105469 31.691406 17.1875 31.664062 Z M 38.691406 32.796875 C 38.730469 32.777344 38.777344 32.75 38.8125 32.722656 C 38.8125 32.730469 38.8125 32.738281 38.8125 32.738281 C 38.8125 32.824219 38.804688 32.898438 38.792969 32.960938 C 38.785156 32.960938 38.785156 32.960938 38.777344 32.960938 C 38.757812 32.960938 38.730469 32.972656 38.710938 32.972656 L 38.578125 33.007812 C 38.488281 33.027344 38.402344 33.046875 38.308594 33.054688 C 38.132812 33.082031 37.953125 33.09375 37.777344 33.109375 C 37.601562 33.128906 37.421875 33.148438 37.238281 33.136719 C 37.144531 33.136719 37.058594 33.128906 36.964844 33.109375 C 36.917969 33.101562 36.882812 33.101562 36.835938 33.09375 C 36.816406 33.09375 36.789062 33.082031 36.769531 33.082031 C 36.753906 33.074219 36.722656 33.082031 36.6875 33.109375 C 36.6875 33.167969 36.707031 33.183594 36.722656 33.203125 C 36.742188 33.210938 36.769531 33.230469 36.789062 33.242188 C 36.835938 33.257812 36.882812 33.277344 36.929688 33.285156 C 37.023438 33.304688 37.117188 33.316406 37.207031 33.332031 C 37.394531 33.359375 37.589844 33.378906 37.785156 33.378906 C 37.984375 33.378906 38.167969 33.332031 38.355469 33.285156 C 38.449219 33.257812 38.542969 33.230469 38.625 33.195312 C 38.671875 33.175781 38.710938 33.15625 38.757812 33.128906 C 38.757812 33.128906 38.765625 33.128906 38.765625 33.121094 C 38.730469 33.359375 38.671875 33.472656 38.609375 33.519531 C 38.355469 33.546875 38.09375 33.582031 37.851562 33.628906 C 37.507812 33.683594 37.171875 33.757812 36.835938 33.824219 C 36.667969 33.859375 36.5 33.890625 36.332031 33.917969 C 36.25 33.925781 36.164062 33.945312 36.089844 33.953125 C 36.007812 33.964844 35.941406 33.972656 35.921875 33.972656 C 35.914062 33.972656 35.914062 33.972656 35.894531 33.964844 C 35.875 33.953125 35.847656 33.925781 35.820312 33.890625 C 35.761719 33.824219 35.699219 33.757812 35.632812 33.695312 C 35.511719 33.574219 35.371094 33.453125 35.214844 33.351562 C 35.261719 33.535156 35.316406 33.703125 35.390625 33.859375 C 35.429688 33.945312 35.464844 34.019531 35.503906 34.101562 C 35.519531 34.140625 35.550781 34.183594 35.585938 34.230469 C 35.625 34.277344 35.6875 34.332031 35.761719 34.371094 C 35.839844 34.398438 35.902344 34.40625 35.96875 34.40625 C 36.023438 34.40625 36.070312 34.40625 36.117188 34.40625 C 36.210938 34.398438 36.304688 34.390625 36.398438 34.371094 C 36.574219 34.34375 36.753906 34.296875 36.917969 34.257812 C 37.226562 34.175781 37.535156 34.082031 37.824219 33.972656 C 37.816406 33.980469 37.816406 33.992188 37.804688 34 C 37.207031 35.085938 37.992188 36.417969 36.519531 37.113281 C 33.265625 38.660156 34 35.128906 32.789062 33.730469 C 32.714844 33.648438 32.628906 33.566406 32.546875 33.480469 L 32.574219 33.5 C 32.648438 32.933594 31.679688 32.730469 31.121094 32.082031 C 31.230469 31.988281 31.34375 31.886719 31.464844 31.777344 C 31.472656 31.765625 31.484375 31.765625 31.492188 31.757812 C 31.492188 31.757812 31.484375 31.757812 31.484375 31.757812 C 31.988281 31.292969 32.535156 30.691406 32.566406 30.285156 C 32.714844 30.339844 32.863281 30.394531 33.023438 30.453125 C 34.421875 30.941406 36.539062 29.953125 37.648438 30.609375 C 37.984375 30.8125 38.382812 31.414062 38.609375 31.980469 C 38.5625 32 38.503906 32.015625 38.457031 32.046875 C 38.402344 32.074219 38.335938 32.121094 38.273438 32.148438 C 38.242188 32.164062 38.207031 32.164062 38.167969 32.175781 C 38.152344 32.175781 38.132812 32.183594 38.121094 32.195312 L 38.09375 32.203125 C 38.085938 32.203125 38.078125 32.222656 38.066406 32.269531 C 38.078125 32.3125 38.085938 32.332031 38.105469 32.332031 L 38.132812 32.339844 C 38.152344 32.339844 38.167969 32.351562 38.199219 32.351562 C 38.234375 32.351562 38.28125 32.339844 38.320312 32.339844 C 38.402344 32.332031 38.488281 32.332031 38.5625 32.296875 C 38.609375 32.277344 38.644531 32.257812 38.683594 32.230469 C 38.710938 32.324219 38.730469 32.414062 38.746094 32.5 C 38.738281 32.507812 38.71875 32.507812 38.710938 32.519531 C 38.664062 32.535156 38.609375 32.5625 38.550781 32.574219 C 38.441406 32.601562 38.328125 32.609375 38.207031 32.636719 C 38.085938 32.65625 37.964844 32.695312 37.84375 32.703125 C 37.785156 32.710938 37.722656 32.710938 37.664062 32.703125 L 37.535156 32.703125 C 37.515625 32.703125 37.507812 32.710938 37.46875 32.75 C 37.46875 32.804688 37.480469 32.824219 37.496094 32.824219 C 37.515625 32.832031 37.527344 32.84375 37.542969 32.851562 C 37.574219 32.871094 37.609375 32.878906 37.648438 32.878906 C 37.710938 32.886719 37.785156 32.898438 37.851562 32.898438 C 37.992188 32.90625 38.113281 32.917969 38.242188 32.90625 C 38.429688 32.898438 38.570312 32.859375 38.691406 32.796875 Z M 11.527344 23.234375 L 11.816406 21.632812 C 11.789062 21.605469 11.78125 21.585938 11.78125 21.566406 L 11.78125 21.503906 C 11.78125 21.457031 11.789062 21.410156 11.796875 21.363281 C 11.816406 21.269531 11.835938 21.1875 11.84375 21.09375 C 11.871094 20.917969 11.890625 20.734375 11.929688 20.558594 C 11.957031 20.382812 12.011719 20.207031 12.058594 20.03125 C 12.085938 19.945312 12.105469 19.851562 12.132812 19.769531 C 12.132812 19.761719 12.144531 19.75 12.144531 19.734375 C 12.039062 19.675781 11.949219 19.621094 11.855469 19.566406 C 11.855469 19.585938 11.84375 19.601562 11.84375 19.621094 C 11.816406 19.777344 11.796875 19.925781 11.761719 20.074219 C 11.722656 20.222656 11.667969 20.371094 11.621094 20.519531 C 11.601562 20.59375 11.582031 20.667969 11.566406 20.742188 C 11.554688 20.78125 11.546875 20.816406 11.527344 20.855469 L 11.507812 20.910156 C 11.5 20.929688 11.480469 20.945312 11.433594 20.957031 C 11.386719 20.929688 11.378906 20.898438 11.378906 20.882812 L 11.378906 20.824219 C 11.378906 20.789062 11.386719 20.75 11.386719 20.714844 C 11.398438 20.640625 11.414062 20.566406 11.425781 20.484375 C 11.445312 20.324219 11.460938 20.175781 11.492188 20.019531 C 11.519531 19.871094 11.566406 19.722656 11.601562 19.574219 C 11.613281 19.527344 11.628906 19.492188 11.640625 19.445312 C 11.566406 19.398438 11.480469 19.351562 11.40625 19.308594 C 11.386719 19.425781 11.371094 19.539062 11.332031 19.660156 C 11.292969 19.769531 11.246094 19.882812 11.210938 20 C 11.191406 20.058594 11.183594 20.113281 11.164062 20.175781 C 11.15625 20.207031 11.144531 20.234375 11.136719 20.261719 L 11.117188 20.308594 C 11.109375 20.324219 11.097656 20.335938 11.042969 20.335938 C 10.996094 20.308594 10.988281 20.296875 10.988281 20.28125 L 10.988281 20.234375 C 10.988281 20.207031 10.988281 20.167969 10.996094 20.140625 C 11.003906 20.085938 11.015625 20.019531 11.023438 19.964844 C 11.035156 19.84375 11.042969 19.722656 11.070312 19.601562 C 11.089844 19.484375 11.136719 19.371094 11.183594 19.25 C 11.191406 19.222656 11.203125 19.203125 11.210938 19.175781 C 10.808594 18.878906 10.566406 18.464844 10.34375 18.039062 C 10.335938 18.054688 10.335938 18.074219 10.324219 18.09375 C 10.277344 18.195312 10.203125 18.277344 10.128906 18.34375 C 10.046875 18.40625 9.960938 18.453125 9.867188 18.480469 C 9.691406 18.539062 9.523438 18.554688 9.375 18.566406 C 9.074219 18.585938 8.777344 18.585938 8.46875 18.585938 C 8.171875 18.574219 7.863281 18.554688 7.554688 18.511719 C 7.84375 18.40625 8.144531 18.34375 8.441406 18.277344 C 8.738281 18.214844 9.039062 18.167969 9.335938 18.128906 C 9.34375 18.128906 9.363281 18.128906 9.375 18.121094 C 9.363281 18.082031 9.449219 17.964844 9.484375 17.972656 C 9.53125 17.972656 9.570312 18.007812 9.664062 18.074219 C 9.679688 18.066406 9.699219 18.066406 9.71875 18.054688 C 9.832031 18.019531 9.894531 17.964844 9.953125 17.898438 C 10.007812 17.832031 10.035156 17.722656 10.046875 17.59375 C 10.046875 17.554688 10.046875 17.527344 10.046875 17.492188 C 9.746094 16.960938 9.363281 16.546875 8.589844 16.546875 C 7.6875 16.546875 5.390625 16.75 4.945312 17.789062 C 4.886719 17.925781 4.859375 18.046875 4.859375 18.167969 C 4.898438 18.195312 4.933594 18.230469 4.960938 18.261719 C 5.019531 18.316406 5.054688 18.363281 5.085938 18.371094 C 5.113281 18.378906 5.128906 18.398438 5.175781 18.425781 C 5.222656 18.453125 5.28125 18.480469 5.335938 18.5 C 5.449219 18.546875 5.570312 18.59375 5.691406 18.628906 C 5.820312 18.667969 5.953125 18.703125 6.109375 18.742188 C 5.988281 18.84375 5.839844 18.910156 5.679688 18.9375 C 5.523438 18.964844 5.355469 18.953125 5.195312 18.917969 C 5.148438 18.910156 5.113281 18.890625 5.066406 18.871094 C 5.261719 19.269531 5.390625 19.59375 4.542969 19.964844 C 3.640625 20.363281 3.640625 19.527344 2.828125 19.660156 C 1.492188 19.871094 1.449219 20.964844 1.699219 22.125 C 1.859375 22.835938 2.222656 24.078125 3.191406 23.976562 C 3.480469 23.949219 3.722656 23.753906 3.957031 23.511719 C 3.945312 23.476562 3.945312 23.4375 3.9375 23.402344 C 3.929688 23.300781 3.929688 23.199219 3.9375 23.097656 C 3.945312 22.992188 3.964844 22.902344 3.992188 22.800781 C 4.011719 22.707031 4.039062 22.605469 4.066406 22.511719 C 4.09375 22.410156 4.125 22.328125 4.160156 22.226562 C 4.179688 22.167969 4.207031 22.113281 4.234375 22.058594 C 4.273438 22.003906 4.308594 21.945312 4.355469 21.910156 C 4.449219 21.828125 4.5625 21.769531 4.664062 21.742188 C 4.765625 21.714844 4.878906 21.707031 4.980469 21.707031 C 4.824219 21.84375 4.65625 21.964844 4.589844 22.105469 C 4.550781 22.167969 4.542969 22.234375 4.535156 22.316406 L 4.496094 22.613281 C 4.476562 22.714844 4.460938 22.808594 4.441406 22.910156 C 4.429688 22.949219 4.421875 22.976562 4.414062 23.011719 C 4.582031 22.835938 4.75 22.667969 4.933594 22.558594 C 6.082031 21.910156 6.363281 22.519531 7.378906 22.59375 C 8.125 22.640625 8.824219 22.429688 9.558594 22.59375 C 10.203125 22.726562 10.867188 22.957031 11.527344 23.234375 Z M 9.457031 17.242188 C 9.511719 17.296875 9.578125 17.34375 9.664062 17.417969 C 9.589844 17.5 9.542969 17.554688 9.496094 17.601562 C 9.4375 17.546875 9.335938 17.5 9.335938 17.433594 C 9.335938 17.378906 9.421875 17.304688 9.457031 17.242188 Z M 17.085938 18.601562 C 16.777344 18.925781 16.621094 19.363281 16.433594 19.871094 C 16.621094 19.363281 16.777344 18.925781 17.085938 18.601562 Z M 31.949219 24.976562 C 32.003906 24.855469 32.035156 24.734375 32.0625 24.605469 C 32.070312 24.578125 32.070312 24.542969 32.070312 24.511719 C 32.082031 24.449219 32.082031 24.382812 32.082031 24.320312 C 32.082031 24.050781 32.035156 23.761719 31.988281 23.464844 C 31.929688 23.152344 31.875 22.828125 31.855469 22.503906 C 31.855469 22.4375 31.847656 22.382812 31.855469 22.316406 C 31.855469 22.300781 31.855469 22.28125 31.855469 22.261719 C 31.855469 22.214844 31.855469 22.179688 31.855469 22.140625 C 31.855469 22.125 31.855469 22.09375 31.855469 22.078125 C 31.855469 22.039062 31.867188 21.992188 31.867188 21.957031 C 31.867188 21.9375 31.867188 21.929688 31.875 21.910156 C 31.875 21.910156 31.875 21.902344 31.875 21.902344 C 31.882812 21.855469 31.882812 21.816406 31.894531 21.769531 C 31.894531 21.753906 31.894531 21.742188 31.902344 21.726562 C 31.914062 21.667969 31.921875 21.613281 31.929688 21.558594 C 31.929688 21.558594 31.929688 21.558594 31.929688 21.546875 C 31.96875 21.363281 32.015625 21.179688 32.0625 20.992188 C 32.082031 20.9375 32.089844 20.871094 32.109375 20.816406 C 32.164062 20.457031 32.21875 20.085938 32.277344 19.871094 C 32.171875 19.539062 32.089844 19.1875 31.847656 18.945312 C 31.371094 18.472656 30.347656 18.214844 29.570312 18.019531 C 29.5625 18.09375 29.394531 18.148438 29.394531 18.203125 C 29.402344 18.363281 29.394531 18.316406 29.46875 18.464844 C 29.609375 18.742188 30.074219 18.992188 30.28125 19.261719 C 30.570312 19.632812 30.785156 20.046875 30.746094 20.53125 C 30.71875 20.9375 30.523438 21.34375 30.335938 21.707031 C 30.300781 21.769531 30.261719 21.84375 30.222656 21.929688 C 30.160156 22.066406 30.074219 22.207031 29.980469 22.300781 C 29.972656 22.308594 29.65625 22.699219 29.703125 22.4375 C 29.730469 22.308594 29.75 22.226562 29.757812 22.167969 C 29.777344 22.066406 29.738281 22.058594 29.554688 22.019531 C 29.246094 21.957031 28.472656 22.34375 28.125 22.390625 C 27.242188 22.53125 26.410156 22.429688 25.851562 21.652344 C 25.367188 20.972656 25.105469 19.722656 25.535156 18.964844 C 25.644531 18.777344 25.886719 18.492188 26.140625 18.480469 C 26.523438 18.464844 26.253906 18.925781 26.253906 18.925781 C 27.015625 18.925781 27.714844 18.214844 28.445312 18.027344 C 28.546875 18 28.84375 17.917969 29.105469 17.890625 C 29.105469 17.890625 29.097656 17.890625 29.097656 17.890625 C 27.652344 17.507812 26.289062 18.121094 24.863281 18.332031 C 23.667969 18.519531 22.523438 18.4375 21.328125 18.261719 C 20.878906 18.195312 20.40625 18.121094 19.929688 18.066406 C 20.609375 18.296875 21.261719 18.917969 21.980469 18.917969 C 21.980469 18.917969 21.710938 18.453125 22.09375 18.472656 C 22.34375 18.480469 22.597656 18.769531 22.699219 18.953125 C 23.136719 19.714844 22.867188 20.964844 22.382812 21.640625 C 21.824219 22.410156 20.992188 22.519531 20.105469 22.382812 C 19.761719 22.328125 18.988281 21.945312 18.679688 22.011719 C 18.511719 22.050781 18.464844 22.058594 18.476562 22.132812 C 18.476562 22.1875 18.503906 22.28125 18.53125 22.429688 C 18.578125 22.6875 18.261719 22.289062 18.25 22.289062 C 18.148438 22.1875 18.066406 22.03125 17.988281 21.890625 C 17.953125 21.828125 17.925781 21.761719 17.898438 21.707031 C 17.710938 21.34375 17.515625 20.9375 17.488281 20.53125 C 17.449219 20.046875 17.671875 19.632812 17.953125 19.261719 C 18.15625 18.992188 18.625 18.742188 18.765625 18.464844 C 18.839844 18.316406 18.839844 18.351562 18.839844 18.203125 C 18.839844 18.15625 18.707031 18.101562 18.671875 18.046875 C 18.457031 18.054688 18.242188 18.082031 18.027344 18.121094 C 17.570312 18.214844 17.273438 18.378906 17.046875 18.613281 C 17.058594 19.539062 16.601562 20.160156 16.21875 20.910156 C 16.226562 20.957031 16.238281 21.003906 16.246094 21.046875 C 16.265625 21.195312 16.273438 21.34375 16.285156 21.484375 C 16.285156 21.53125 16.285156 21.566406 16.285156 21.613281 C 16.285156 21.679688 16.285156 21.753906 16.273438 21.816406 C 16.273438 21.828125 16.273438 21.828125 16.273438 21.835938 C 16.273438 21.929688 16.265625 22.011719 16.253906 22.105469 C 16.238281 22.269531 16.21875 22.429688 16.199219 22.59375 C 16.191406 22.679688 16.179688 22.761719 16.171875 22.835938 C 16.164062 22.917969 16.152344 23.003906 16.144531 23.078125 C 16.132812 23.160156 16.125 23.234375 16.117188 23.316406 C 16.105469 23.402344 16.097656 23.476562 16.097656 23.558594 C 16.085938 23.640625 16.085938 23.714844 16.085938 23.800781 C 16.085938 23.835938 16.085938 23.882812 16.085938 23.921875 C 16.085938 23.957031 16.085938 24.003906 16.085938 24.039062 C 16.085938 24.113281 16.097656 24.1875 16.097656 24.261719 C 16.097656 24.308594 16.105469 24.355469 16.117188 24.402344 C 16.132812 24.511719 16.152344 24.613281 16.179688 24.726562 C 16.199219 24.78125 16.21875 24.835938 16.238281 24.882812 C 16.601562 25.78125 17.625 25.496094 18.082031 26.144531 C 18.101562 26.164062 18.109375 26.191406 18.128906 26.21875 C 18.175781 26.292969 18.203125 26.375 18.222656 26.457031 C 18.222656 26.46875 18.222656 26.476562 18.234375 26.496094 C 18.242188 26.53125 18.242188 26.578125 18.25 26.617188 C 18.25 26.625 18.25 26.625 18.25 26.636719 C 18.25 26.664062 18.25 26.699219 18.25 26.726562 C 18.25 26.753906 18.25 26.792969 18.242188 26.820312 C 18.234375 26.886719 18.234375 26.949219 18.214844 27.015625 C 18.203125 27.050781 18.203125 27.078125 18.195312 27.117188 C 18.1875 27.164062 18.175781 27.21875 18.15625 27.265625 C 18.148438 27.320312 18.128906 27.375 18.109375 27.429688 C 18.074219 27.570312 18.027344 27.71875 17.980469 27.859375 C 17.953125 27.933594 17.933594 28.007812 17.90625 28.070312 C 17.859375 28.199219 17.820312 28.339844 17.785156 28.46875 C 17.71875 28.730469 17.671875 28.96875 17.691406 29.191406 C 17.691406 29.257812 17.699219 29.320312 17.71875 29.378906 C 17.765625 29.582031 17.839844 29.757812 17.914062 29.933594 C 18 30.101562 18.09375 30.257812 18.195312 30.394531 C 18.242188 30.453125 18.277344 30.507812 18.335938 30.5625 C 18.429688 30.675781 18.53125 30.777344 18.632812 30.867188 C 18.839844 31.054688 19.0625 31.222656 19.296875 31.378906 C 19.390625 31.441406 19.472656 31.5 19.566406 31.554688 C 19.734375 31.664062 19.910156 31.765625 20.089844 31.871094 C 20.117188 31.886719 20.144531 31.90625 20.171875 31.925781 C 20.386719 32.0625 20.582031 32.203125 20.757812 32.34375 C 20.863281 32.425781 20.957031 32.5 21.046875 32.574219 C 21.1875 32.683594 21.328125 32.796875 21.476562 32.886719 C 21.570312 32.953125 21.671875 33.007812 21.785156 33.0625 C 21.886719 33.121094 22.007812 33.167969 22.128906 33.203125 C 22.195312 33.222656 22.25 33.242188 22.316406 33.25 C 22.449219 33.277344 22.585938 33.296875 22.746094 33.304688 C 23.296875 33.332031 23.863281 33.304688 24.414062 33.304688 C 24.871094 33.304688 25.261719 33.332031 25.628906 33.304688 C 25.730469 33.296875 25.832031 33.285156 25.933594 33.269531 C 26.242188 33.210938 26.53125 33.109375 26.839844 32.90625 C 26.886719 32.871094 26.941406 32.832031 26.996094 32.796875 C 27.101562 32.722656 27.203125 32.636719 27.316406 32.5625 C 27.472656 32.453125 27.652344 32.332031 27.820312 32.222656 C 27.929688 32.148438 28.050781 32.074219 28.164062 31.988281 C 28.199219 31.960938 28.238281 31.933594 28.285156 31.914062 C 28.359375 31.859375 28.433594 31.8125 28.519531 31.757812 C 28.609375 31.691406 28.703125 31.628906 28.789062 31.5625 C 28.84375 31.527344 28.890625 31.488281 28.945312 31.453125 C 29.132812 31.3125 29.3125 31.15625 29.476562 31 C 29.523438 30.953125 29.570312 30.90625 29.617188 30.859375 C 29.664062 30.804688 29.710938 30.757812 29.757812 30.710938 C 29.8125 30.636719 29.871094 30.574219 29.925781 30.507812 C 30.011719 30.394531 30.085938 30.292969 30.140625 30.183594 C 30.167969 30.136719 30.1875 30.101562 30.207031 30.0625 C 30.222656 30.027344 30.242188 29.980469 30.261719 29.941406 C 30.269531 29.914062 30.28125 29.886719 30.300781 29.859375 C 30.328125 29.792969 30.347656 29.730469 30.363281 29.664062 C 30.375 29.628906 30.382812 29.589844 30.390625 29.554688 C 30.402344 29.515625 30.410156 29.46875 30.410156 29.433594 C 30.421875 29.386719 30.421875 29.339844 30.429688 29.292969 C 30.4375 29.238281 30.4375 29.171875 30.4375 29.117188 C 30.4375 29.109375 30.4375 29.109375 30.4375 29.097656 C 30.4375 28.996094 30.429688 28.894531 30.421875 28.785156 C 30.410156 28.710938 30.402344 28.636719 30.390625 28.5625 C 30.382812 28.488281 30.363281 28.414062 30.355469 28.339844 C 30.347656 28.292969 30.335938 28.257812 30.328125 28.210938 C 30.308594 28.125 30.300781 28.042969 30.28125 27.960938 C 30.234375 27.710938 30.1875 27.441406 30.160156 27.152344 C 30.148438 27.097656 30.148438 27.042969 30.140625 26.988281 C 30.132812 26.875 30.132812 26.773438 30.132812 26.691406 C 30.132812 26.644531 30.132812 26.597656 30.132812 26.550781 C 30.132812 26.515625 30.140625 26.476562 30.140625 26.449219 C 30.140625 26.429688 30.148438 26.421875 30.148438 26.402344 C 30.148438 26.382812 30.160156 26.367188 30.160156 26.347656 C 30.179688 26.292969 30.195312 26.253906 30.214844 26.21875 C 30.222656 26.207031 30.234375 26.191406 30.242188 26.179688 C 30.261719 26.164062 30.28125 26.144531 30.300781 26.125 C 30.308594 26.117188 30.316406 26.105469 30.335938 26.097656 C 30.355469 26.078125 30.382812 26.070312 30.410156 26.050781 C 30.4375 26.042969 30.46875 26.023438 30.496094 26.015625 C 30.523438 26.003906 30.558594 25.988281 30.597656 25.976562 C 30.792969 25.914062 31.046875 25.828125 31.363281 25.625 C 31.660156 25.429688 31.835938 25.207031 31.949219 24.976562 Z M 25.851562 22.585938 C 26.316406 22.679688 26.679688 23.058594 27.148438 23.160156 C 27.332031 23.199219 27.53125 23.214844 27.742188 23.226562 C 27.941406 23.226562 28.136719 23.214844 28.332031 23.207031 C 28.398438 23.199219 28.453125 23.1875 28.507812 23.1875 C 28.574219 23.179688 28.640625 23.171875 28.695312 23.171875 C 28.761719 23.160156 28.835938 23.160156 28.898438 23.152344 C 28.976562 23.140625 28.992188 23.226562 28.957031 23.28125 C 28.957031 23.300781 28.945312 23.316406 28.917969 23.335938 C 28.777344 23.429688 28.609375 23.464844 28.433594 23.496094 C 27.976562 23.746094 27.296875 23.808594 27.148438 24.328125 C 27.148438 24.328125 27.148438 24.335938 27.148438 24.335938 C 27.148438 24.347656 27.136719 24.355469 27.128906 24.363281 C 27.121094 24.382812 27.109375 24.394531 27.089844 24.402344 C 27.074219 24.4375 27.054688 24.476562 27.027344 24.503906 C 27.007812 24.523438 26.980469 24.511719 26.96875 24.496094 C 26.960938 24.484375 26.953125 24.46875 26.953125 24.457031 C 26.953125 24.449219 26.941406 24.4375 26.941406 24.429688 C 26.90625 24.335938 26.90625 24.253906 26.886719 24.132812 C 26.859375 23.996094 26.792969 23.875 26.71875 23.761719 C 26.652344 23.671875 26.578125 23.585938 26.496094 23.503906 C 26.417969 23.429688 26.34375 23.355469 26.28125 23.28125 C 26.066406 23.171875 25.878906 23.003906 25.730469 22.761719 C 25.65625 22.667969 25.75 22.566406 25.851562 22.585938 Z M 24.667969 22.390625 C 24.851562 22.585938 25.46875 23.597656 25.785156 24.246094 C 25.898438 24.484375 25.972656 24.671875 25.964844 24.753906 C 25.964844 24.808594 25.945312 24.875 25.917969 24.96875 C 25.917969 24.976562 25.90625 24.996094 25.90625 25.003906 C 25.832031 25.246094 25.691406 25.570312 25.589844 25.820312 C 25.507812 26.023438 25.429688 26.171875 25.429688 26.171875 L 25.226562 25.734375 L 24.582031 25.957031 L 24.5625 25.707031 L 24.5625 25.671875 L 24.527344 25.265625 L 24.5 24.921875 L 24.292969 22.652344 C 24.273438 22.652344 24.414062 22.132812 24.667969 22.390625 Z M 24.730469 26.679688 C 24.695312 26.726562 24.640625 26.8125 24.609375 26.800781 C 24.453125 26.765625 24.304688 26.699219 24.144531 26.644531 C 24.21875 26.578125 24.292969 26.523438 24.394531 26.429688 C 24.527344 26.523438 24.628906 26.597656 24.730469 26.679688 Z M 23.605469 22.390625 C 23.855469 22.132812 23.996094 22.652344 23.996094 22.652344 L 23.789062 24.894531 L 23.753906 25.28125 L 23.726562 25.632812 L 23.726562 25.671875 L 23.695312 25.949219 L 23.054688 25.726562 L 22.847656 26.164062 C 22.847656 26.164062 22.78125 26.023438 22.699219 25.828125 C 22.585938 25.570312 22.4375 25.207031 22.363281 24.957031 C 22.363281 24.949219 22.355469 24.929688 22.355469 24.921875 C 22.335938 24.847656 22.316406 24.792969 22.316406 24.746094 C 22.308594 24.660156 22.382812 24.46875 22.503906 24.21875 C 22.8125 23.566406 23.425781 22.578125 23.605469 22.390625 Z M 21.105469 24.28125 C 20.9375 23.800781 20.273438 23.726562 19.828125 23.484375 C 19.660156 23.457031 19.480469 23.421875 19.34375 23.328125 C 19.324219 23.308594 19.3125 23.289062 19.304688 23.273438 C 19.265625 23.226562 19.285156 23.140625 19.359375 23.140625 C 19.425781 23.152344 19.492188 23.152344 19.566406 23.160156 C 19.632812 23.160156 19.6875 23.171875 19.753906 23.179688 C 19.808594 23.179688 19.875 23.179688 19.929688 23.199219 C 20.144531 23.214844 20.359375 23.226562 20.5625 23.214844 C 20.75 23.207031 20.9375 23.1875 21.113281 23.152344 C 21.589844 23.050781 21.953125 22.667969 22.410156 22.578125 C 22.503906 22.558594 22.605469 22.660156 22.550781 22.753906 C 22.402344 22.992188 22.214844 23.152344 22 23.273438 C 21.925781 23.347656 21.851562 23.421875 21.785156 23.496094 C 21.710938 23.578125 21.636719 23.652344 21.570312 23.734375 C 21.488281 23.855469 21.414062 23.976562 21.382812 24.125 C 21.367188 24.234375 21.367188 24.308594 21.335938 24.402344 C 21.335938 24.410156 21.328125 24.421875 21.328125 24.429688 C 21.320312 24.449219 21.308594 24.46875 21.300781 24.484375 C 21.292969 24.503906 21.261719 24.511719 21.246094 24.496094 C 21.214844 24.46875 21.1875 24.429688 21.179688 24.394531 C 21.152344 24.382812 21.132812 24.355469 21.125 24.328125 C 21.125 24.328125 21.125 24.320312 21.125 24.320312 C 21.113281 24.308594 21.105469 24.300781 21.105469 24.28125 Z M 21.246094 32.398438 C 21.1875 32.40625 21.167969 32.40625 21.152344 32.386719 L 21.105469 32.339844 C 21.078125 32.3125 21.046875 32.285156 21.019531 32.25 C 20.964844 32.183594 20.917969 32.121094 20.863281 32.054688 C 20.769531 31.945312 20.667969 31.839844 20.574219 31.730469 C 20.554688 31.710938 20.546875 31.691406 20.527344 31.683594 C 20.414062 31.554688 20.332031 31.414062 20.238281 31.277344 C 20.238281 31.265625 20.226562 31.265625 20.226562 31.257812 C 20.179688 31.191406 20.144531 31.128906 20.105469 31.0625 C 20.097656 31.054688 20.097656 31.035156 20.089844 31.027344 C 20.078125 31 20.058594 30.980469 20.050781 30.953125 L 20.023438 30.898438 C 20.011719 30.878906 20.011719 30.851562 20.042969 30.804688 C 20.097656 30.785156 20.125 30.792969 20.132812 30.8125 L 20.179688 30.859375 C 20.210938 30.886719 20.246094 30.914062 20.273438 30.953125 C 20.332031 31.007812 20.386719 31.074219 20.441406 31.136719 C 20.453125 31.148438 20.453125 31.148438 20.460938 31.15625 C 20.5625 31.277344 20.675781 31.398438 20.757812 31.527344 C 20.777344 31.554688 20.796875 31.589844 20.824219 31.621094 C 20.898438 31.730469 20.964844 31.832031 21.039062 31.945312 C 21.085938 32.015625 21.132812 32.082031 21.179688 32.148438 C 21.207031 32.183594 21.226562 32.222656 21.246094 32.257812 L 21.273438 32.3125 C 21.273438 32.332031 21.273438 32.351562 21.246094 32.398438 Z M 27.78125 31.101562 L 27.761719 31.164062 C 27.753906 31.203125 27.734375 31.25 27.714844 31.285156 C 27.6875 31.359375 27.652344 31.441406 27.613281 31.515625 C 27.59375 31.574219 27.566406 31.636719 27.546875 31.691406 C 27.511719 31.796875 27.464844 31.886719 27.417969 31.988281 C 27.34375 32.148438 27.242188 32.285156 27.136719 32.414062 C 27.082031 32.480469 27.035156 32.554688 26.96875 32.609375 C 26.941406 32.636719 26.90625 32.667969 26.875 32.703125 L 26.832031 32.738281 C 26.8125 32.757812 26.792969 32.757812 26.738281 32.738281 C 26.707031 32.683594 26.707031 32.667969 26.726562 32.648438 L 26.753906 32.59375 C 26.773438 32.554688 26.792969 32.519531 26.820312 32.480469 C 26.859375 32.40625 26.90625 32.339844 26.953125 32.269531 C 27.035156 32.128906 27.109375 31.980469 27.195312 31.839844 L 27.351562 31.582031 L 27.453125 31.425781 C 27.5 31.351562 27.53125 31.277344 27.574219 31.203125 C 27.59375 31.164062 27.613281 31.128906 27.640625 31.089844 L 27.679688 31.035156 C 27.679688 31.035156 27.679688 31.035156 27.6875 31.027344 C 27.699219 31.007812 27.726562 31 27.773438 31 C 27.78125 31.054688 27.789062 31.074219 27.78125 31.101562 C 27.78125 31.089844 27.78125 31.101562 27.78125 31.101562 Z M 29.535156 26.839844 C 29.5625 26.914062 29.601562 26.996094 29.628906 27.070312 C 29.636719 27.097656 29.683594 27.21875 29.722656 27.359375 C 29.785156 27.597656 29.84375 27.894531 29.730469 27.914062 C 29.617188 27.933594 29.488281 27.699219 29.355469 27.535156 C 29.28125 27.441406 29.207031 27.359375 29.125 27.339844 C 28.945312 27.292969 28.84375 27.359375 28.789062 27.46875 C 28.742188 27.5625 28.714844 27.691406 28.695312 27.839844 C 28.675781 27.949219 28.667969 28.070312 28.648438 28.183594 C 28.640625 28.226562 28.628906 28.285156 28.621094 28.332031 C 28.59375 28.421875 28.566406 28.515625 28.507812 28.570312 C 28.257812 28.886719 26.625 30.542969 26.605469 29.730469 C 26.269531 30.109375 26.113281 30.0625 25.839844 30.054688 C 25.796875 30.054688 25.75 30.054688 25.691406 30.0625 C 25.664062 30.0625 25.636719 30.070312 25.609375 30.070312 C 25.347656 30.117188 24.945312 30.246094 24.742188 30.238281 C 24.648438 30.230469 24.5625 30.21875 24.488281 30.210938 C 24.40625 30.191406 24.332031 30.164062 24.273438 30.109375 C 24.238281 30.070312 24.210938 30.027344 24.191406 29.96875 C 24.164062 29.90625 24.152344 29.820312 24.152344 29.71875 C 24.152344 29.851562 24.136719 29.941406 24.097656 30.015625 C 24.097656 30.015625 24.097656 30.027344 24.097656 30.027344 C 24.015625 30.191406 23.847656 30.21875 23.640625 30.238281 C 23.613281 30.238281 23.59375 30.238281 23.566406 30.246094 C 23.371094 30.265625 23.007812 30.144531 22.746094 30.101562 C 22.699219 30.089844 22.652344 30.082031 22.613281 30.082031 C 22.53125 30.070312 22.457031 30.070312 22.390625 30.082031 C 22.167969 30.089844 22 30.089844 21.703125 29.757812 C 21.683594 30.574219 20.050781 28.914062 19.800781 28.597656 C 19.742188 28.523438 19.707031 28.414062 19.679688 28.300781 C 19.679688 28.285156 19.667969 28.257812 19.667969 28.238281 C 19.648438 28.144531 19.640625 28.050781 19.632812 27.949219 C 19.613281 27.8125 19.59375 27.683594 19.554688 27.578125 C 19.5 27.414062 19.398438 27.320312 19.183594 27.367188 C 19.089844 27.394531 18.996094 27.496094 18.902344 27.617188 C 18.78125 27.785156 18.671875 27.960938 18.566406 27.941406 C 18.457031 27.933594 18.503906 27.683594 18.558594 27.449219 C 18.605469 27.285156 18.652344 27.136719 18.671875 27.097656 C 18.699219 27.015625 18.734375 26.941406 18.765625 26.855469 C 18.78125 26.820312 18.792969 26.792969 18.800781 26.753906 C 18.828125 26.691406 18.847656 26.617188 18.867188 26.550781 C 18.902344 26.375 18.800781 26.144531 18.828125 26.003906 C 18.886719 25.753906 18.855469 25.839844 19.089844 25.800781 C 19.144531 25.792969 19.566406 25.902344 19.601562 25.941406 C 19.511719 25.800781 18.765625 25.105469 18.792969 24.976562 C 18.847656 24.660156 19.613281 25.097656 19.789062 25.179688 C 20.460938 25.503906 20.984375 25.988281 21.207031 26.652344 C 21.261719 26.828125 21.300781 27.023438 21.320312 27.226562 C 21.46875 26.929688 21.664062 26.960938 21.832031 27.097656 C 21.839844 27.105469 21.851562 27.117188 21.859375 27.125 C 21.992188 27.253906 22.113281 27.46875 22.167969 27.636719 C 22.382812 27.429688 22.78125 27.359375 22.96875 27.636719 C 22.996094 27.589844 23.027344 27.542969 23.070312 27.503906 C 23.015625 27.402344 22.960938 27.292969 22.921875 27.179688 C 22.914062 27.152344 23.027344 27.050781 23.027344 27.050781 C 23.117188 27.117188 23.203125 27.191406 23.332031 27.292969 C 23.296875 27.339844 23.269531 27.367188 23.238281 27.402344 C 23.566406 27.285156 24.0625 27.367188 24.183594 27.617188 C 24.351562 27.285156 25.199219 27.226562 25.394531 27.625 C 25.582031 27.347656 25.980469 27.421875 26.195312 27.625 C 26.253906 27.449219 26.375 27.246094 26.503906 27.117188 C 26.523438 27.097656 26.53125 27.089844 26.550781 27.078125 C 26.707031 26.949219 26.894531 26.929688 27.042969 27.21875 C 27.054688 26.996094 27.101562 26.800781 27.164062 26.605469 C 27.390625 25.957031 27.910156 25.484375 28.574219 25.160156 C 28.75 25.078125 29.515625 24.652344 29.570312 24.957031 C 29.589844 25.085938 28.84375 25.78125 28.761719 25.921875 C 28.796875 25.882812 29.21875 25.773438 29.273438 25.78125 C 29.507812 25.808594 29.476562 25.726562 29.535156 25.988281 C 29.5625 26.125 29.46875 26.355469 29.496094 26.53125 C 29.515625 26.605469 29.535156 26.679688 29.5625 26.753906 C 29.507812 26.773438 29.523438 26.800781 29.535156 26.839844 Z M 24.136719 29.691406 C 24.136719 29.664062 24.136719 29.636719 24.136719 29.597656 C 24.136719 29.636719 24.136719 29.664062 24.136719 29.691406 Z M 24.136719 29.691406 "/>
<g clip-path="url(#clip2)" clip-rule="nonzero">
<path style=" stroke:none;fill-rule:nonzero;fill:rgb(100%,100%,100%);fill-opacity:1;" d="M 15.527344 20.796875 C 15.527344 20.796875 15.527344 20.808594 15.527344 20.796875 C 15.527344 20.808594 15.527344 20.808594 15.527344 20.808594 C 15.472656 20.972656 15.417969 21.148438 15.371094 21.328125 C 15.371094 21.328125 15.371094 21.335938 15.371094 21.335938 C 15.351562 21.390625 15.339844 21.457031 15.324219 21.511719 C 15.296875 21.632812 15.265625 21.753906 15.238281 21.871094 C 15.230469 21.9375 15.210938 21.992188 15.203125 22.058594 C 15.171875 22.179688 15.144531 22.300781 15.128906 22.417969 C 15.035156 22.847656 14.929688 23.261719 14.773438 23.652344 C 14.640625 23.964844 14.484375 24.28125 14.316406 24.585938 C 14.296875 24.625 14.269531 24.671875 14.25 24.707031 C 14.183594 24.835938 14.109375 24.957031 14.035156 25.078125 C 14.027344 25.097656 14.015625 25.117188 14 25.132812 C 13.886719 25.328125 13.773438 25.523438 13.664062 25.71875 C 13.605469 25.808594 13.550781 25.914062 13.503906 26.003906 C 13.476562 25.902344 13.449219 25.800781 13.421875 25.691406 C 13.328125 25.335938 13.226562 24.984375 13.148438 24.625 C 13.113281 24.457031 13.074219 24.300781 13.046875 24.132812 C 13.046875 24.113281 13.039062 24.097656 13.039062 24.078125 C 13.027344 24.023438 13.019531 23.957031 13.011719 23.902344 C 12.992188 23.746094 12.972656 23.585938 12.964844 23.429688 C 12.964844 23.375 12.953125 23.328125 12.953125 23.273438 C 12.953125 23.171875 12.953125 23.066406 12.972656 22.964844 C 12.984375 22.863281 13 22.773438 13.019531 22.667969 C 13.046875 22.519531 13.074219 22.382812 13.113281 22.234375 C 13.1875 21.945312 13.273438 21.667969 13.328125 21.371094 C 13.347656 21.28125 13.363281 21.179688 13.375 21.078125 C 13.382812 21.03125 13.382812 20.984375 13.382812 20.9375 C 13.382812 20.890625 13.382812 20.84375 13.382812 20.796875 C 13.382812 20.707031 13.375 20.605469 13.363281 20.5 C 13.355469 20.4375 13.347656 20.363281 13.335938 20.296875 C 13.335938 20.28125 13.335938 20.269531 13.328125 20.25 C 13.328125 20.234375 13.328125 20.214844 13.316406 20.195312 C 13.289062 19.992188 13.261719 19.789062 13.261719 19.59375 C 13.261719 19.566406 13.261719 19.539062 13.261719 19.511719 C 13.261719 19.4375 13.261719 19.371094 13.273438 19.296875 C 13.289062 19.101562 13.347656 18.925781 13.457031 18.761719 C 13.496094 18.703125 13.523438 18.65625 13.5625 18.613281 C 13.570312 18.59375 13.589844 18.574219 13.597656 18.566406 C 13.617188 18.539062 13.644531 18.511719 13.664062 18.480469 C 13.683594 18.453125 13.710938 18.425781 13.738281 18.40625 C 13.757812 18.390625 13.765625 18.378906 13.785156 18.363281 C 13.8125 18.324219 13.851562 18.296875 13.878906 18.269531 C 13.886719 18.261719 13.894531 18.25 13.894531 18.25 C 14.054688 18.09375 14.222656 17.953125 14.382812 17.804688 C 14.390625 17.953125 14.390625 18.09375 14.390625 18.222656 C 14.390625 18.425781 14.445312 18.761719 14.550781 19.113281 C 14.539062 19.113281 14.539062 19.113281 14.53125 19.113281 C 14.472656 19.128906 14.417969 19.160156 14.363281 19.195312 C 14.304688 19.234375 14.261719 19.261719 14.214844 19.296875 C 14.121094 19.371094 14.027344 19.453125 13.941406 19.558594 C 13.878906 19.632812 13.820312 19.714844 13.773438 19.808594 C 13.765625 19.835938 13.746094 19.863281 13.738281 19.890625 C 13.792969 19.890625 13.839844 19.882812 13.886719 19.871094 C 13.972656 19.851562 14.046875 19.835938 14.109375 19.808594 C 14.230469 19.769531 14.335938 19.722656 14.4375 19.667969 C 14.492188 19.640625 14.539062 19.613281 14.585938 19.585938 C 14.613281 19.566406 14.640625 19.558594 14.660156 19.539062 C 14.734375 19.734375 14.820312 19.925781 14.914062 20.101562 C 14.839844 20.167969 14.78125 20.234375 14.734375 20.308594 C 14.707031 20.34375 14.6875 20.382812 14.671875 20.410156 C 14.585938 20.558594 14.519531 20.707031 14.457031 20.855469 C 14.457031 20.855469 14.457031 20.863281 14.457031 20.863281 C 14.335938 21.160156 14.25 21.464844 14.183594 21.78125 C 14.382812 21.53125 14.550781 21.261719 14.726562 21.003906 C 14.726562 21.003906 14.726562 21.003906 14.726562 20.992188 C 14.855469 20.808594 14.976562 20.613281 15.117188 20.484375 C 15.128906 20.472656 15.136719 20.464844 15.144531 20.457031 C 15.164062 20.472656 15.175781 20.492188 15.191406 20.511719 C 15.324219 20.660156 15.425781 20.75 15.527344 20.796875 Z M 33.21875 18.890625 L 32.742188 19.074219 C 32.660156 18.898438 32.566406 18.730469 32.433594 18.585938 C 32.398438 18.546875 32.359375 18.511719 32.324219 18.472656 C 31.828125 18.019531 31.046875 17.796875 30.355469 17.601562 C 30.039062 17.332031 29.683594 17.109375 29.320312 16.925781 C 29.066406 16.796875 28.796875 16.695312 28.535156 16.59375 C 28.265625 16.5 28.015625 16.40625 27.734375 16.3125 C 27.59375 16.277344 27.445312 16.230469 27.296875 16.210938 C 27.222656 16.203125 27.136719 16.195312 27.0625 16.195312 C 26.988281 16.183594 26.914062 16.195312 26.832031 16.195312 C 26.523438 16.210938 26.242188 16.296875 25.972656 16.40625 C 25.429688 16.621094 24.964844 16.898438 24.441406 17.101562 C 25.003906 17.035156 25.542969 16.824219 26.074219 16.695312 C 26.335938 16.628906 26.597656 16.582031 26.859375 16.582031 C 26.921875 16.582031 26.988281 16.582031 27.042969 16.59375 C 27.109375 16.601562 27.164062 16.601562 27.230469 16.621094 C 27.351562 16.648438 27.484375 16.683594 27.605469 16.730469 C 27.734375 16.777344 27.855469 16.824219 27.988281 16.871094 L 28.964844 17.242188 C 27.195312 16.980469 25.496094 17.65625 23.695312 17.777344 C 23.070312 17.703125 22.449219 17.621094 21.832031 17.527344 C 21.503906 17.480469 21.1875 17.398438 20.871094 17.304688 C 20.554688 17.222656 20.226562 17.121094 19.910156 17.019531 C 19.585938 16.925781 19.257812 16.832031 18.933594 16.75 C 18.597656 16.667969 18.269531 16.59375 17.925781 16.554688 C 17.652344 16.527344 17.382812 16.527344 17.113281 16.5625 C 17.03125 16.574219 16.945312 16.59375 16.863281 16.621094 C 16.683594 16.667969 16.527344 16.742188 16.375 16.832031 C 16.253906 16.90625 16.144531 17 16.058594 17.109375 C 16.042969 17.140625 16.023438 17.167969 16.003906 17.195312 C 16.03125 17.175781 16.070312 17.15625 16.097656 17.140625 C 16.332031 17 16.582031 16.945312 16.832031 16.90625 C 16.863281 16.90625 16.890625 16.898438 16.917969 16.898438 C 17.234375 16.878906 17.550781 16.90625 17.859375 16.960938 C 18.175781 17.027344 18.503906 17.101562 18.828125 17.175781 C 19.15625 17.257812 19.472656 17.34375 19.800781 17.425781 C 19.882812 17.445312 19.957031 17.464844 20.042969 17.480469 C 18.671875 17.378906 17.308594 17.445312 16.488281 18.222656 C 16.273438 18.425781 16.085938 18.6875 15.957031 19 C 15.882812 19.1875 15.816406 19.378906 15.78125 19.613281 C 15.707031 19.714844 15.628906 19.789062 15.566406 19.816406 C 15.527344 19.835938 15.480469 19.851562 15.425781 19.871094 C 14.894531 19.203125 14.988281 18.007812 15.070312 16.992188 C 15.097656 16.59375 15.136719 16.222656 15.117188 15.914062 C 15.097656 15.445312 15.097656 15.164062 15.332031 14.757812 C 15.386719 14.664062 15.648438 14.664062 15.667969 14.609375 C 15.769531 14.378906 15.675781 13.96875 15.714844 13.71875 C 15.769531 13.691406 15.828125 13.664062 15.882812 13.636719 C 15.984375 13.589844 16.085938 13.542969 16.191406 13.488281 C 16.292969 13.433594 16.386719 13.367188 16.480469 13.304688 L 16.757812 13.109375 C 16.945312 12.980469 17.132812 12.839844 17.320312 12.699219 C 17.503906 12.5625 17.683594 12.414062 17.859375 12.238281 C 17.617188 12.273438 17.382812 12.347656 17.167969 12.433594 C 16.945312 12.515625 16.730469 12.628906 16.527344 12.738281 C 16.421875 12.792969 16.320312 12.859375 16.226562 12.921875 C 16.125 12.988281 16.03125 13.0625 15.9375 13.136719 C 15.902344 13.164062 15.863281 13.203125 15.835938 13.238281 C 15.902344 13.054688 15.984375 12.878906 16.085938 12.699219 C 16.300781 12.480469 16.496094 12.285156 16.710938 12.097656 C 16.832031 11.996094 16.953125 11.894531 17.085938 11.800781 C 17.214844 11.710938 17.347656 11.617188 17.488281 11.542969 C 17.765625 11.386719 18.066406 11.246094 18.371094 11.125 C 18.679688 10.996094 19.007812 10.886719 19.324219 10.753906 C 18.976562 10.746094 18.632812 10.765625 18.289062 10.828125 C 17.945312 10.894531 17.609375 10.996094 17.28125 11.152344 C 17.1875 11.199219 17.09375 11.257812 17 11.3125 C 17.320312 10.753906 17.617188 10.226562 18.121094 9.800781 C 18.148438 9.847656 18.175781 9.902344 18.195312 9.949219 C 18.25 9.882812 18.316406 9.8125 18.417969 9.691406 C 18.390625 9.664062 18.363281 9.644531 18.34375 9.625 C 18.464844 9.542969 18.585938 9.46875 18.726562 9.394531 C 18.941406 9.28125 19.15625 9.179688 19.378906 9.078125 C 19.5 9.125 19.621094 9.171875 19.742188 9.199219 C 19.769531 9.207031 19.828125 9.117188 19.863281 9.078125 C 19.808594 9.03125 19.742188 8.984375 19.679688 8.941406 C 21.394531 8.246094 23.378906 7.71875 25.207031 7.71875 C 26.699219 7.71875 28.601562 8.699219 29.851562 9.457031 C 30.691406 9.96875 31.230469 10.578125 31.652344 11.292969 C 31.640625 11.285156 31.632812 11.285156 31.625 11.273438 C 31.625 11.273438 31.585938 11.921875 31.0625 11.773438 C 30.542969 11.625 30.570312 11.347656 30.132812 11.542969 C 29.691406 11.726562 29.421875 11.402344 28.835938 11.515625 C 28.257812 11.636719 28.257812 11.636719 28.257812 11.636719 L 32.433594 12.996094 C 32.433594 12.996094 32.425781 12.96875 32.414062 12.914062 C 32.425781 12.941406 32.445312 12.96875 32.453125 12.996094 C 32.519531 13.164062 32.667969 13.414062 32.761719 13.617188 C 32.695312 13.570312 32.628906 13.535156 32.566406 13.507812 C 32.351562 13.414062 32.136719 13.359375 31.921875 13.285156 L 31.289062 13.089844 C 30.867188 12.960938 30.4375 12.832031 30.019531 12.691406 C 29.601562 12.5625 29.179688 12.421875 28.761719 12.273438 C 28.546875 12.199219 28.332031 12.136719 28.097656 12.089844 C 27.875 12.042969 27.621094 12.007812 27.390625 12.015625 C 26.90625 12.023438 26.457031 12.15625 26.039062 12.273438 C 25.1875 12.507812 24.332031 12.71875 23.464844 12.953125 C 24.359375 12.980469 25.253906 12.867188 26.128906 12.691406 C 26.570312 12.597656 26.988281 12.488281 27.390625 12.480469 C 27.789062 12.460938 28.199219 12.570312 28.621094 12.699219 C 29.039062 12.832031 29.476562 12.960938 29.90625 13.070312 C 30.335938 13.183594 30.773438 13.292969 31.203125 13.386719 L 31.855469 13.527344 C 32.070312 13.570312 32.292969 13.609375 32.492188 13.675781 C 32.59375 13.710938 32.6875 13.746094 32.761719 13.8125 C 32.796875 13.839844 32.824219 13.867188 32.855469 13.894531 C 32.929688 14.144531 32.9375 14.386719 32.929688 14.617188 C 32.929688 14.628906 32.917969 14.636719 32.917969 14.65625 C 32.917969 14.648438 32.929688 14.648438 32.929688 14.636719 C 32.910156 14.980469 32.835938 15.324219 32.78125 15.730469 C 32.75 15.953125 32.742188 16.175781 32.75 16.398438 C 32.675781 16.351562 32.613281 16.3125 32.546875 16.285156 C 32.203125 16.136719 31.867188 16.019531 31.511719 15.898438 C 31.167969 15.777344 30.8125 15.664062 30.449219 15.582031 C 30.757812 15.796875 31.074219 15.988281 31.390625 16.175781 C 31.707031 16.351562 32.042969 16.527344 32.359375 16.683594 C 32.433594 16.722656 32.492188 16.757812 32.527344 16.796875 C 32.566406 16.832031 32.59375 16.878906 32.613281 16.933594 C 32.660156 17.054688 32.667969 17.230469 32.703125 17.425781 C 32.742188 17.609375 32.796875 17.796875 32.871094 17.972656 C 32.9375 18.128906 33.023438 18.277344 33.125 18.40625 C 33.171875 18.554688 33.199219 18.722656 33.21875 18.890625 Z M 18.960938 13.589844 C 18.988281 13.589844 19.222656 13.515625 19.425781 13.453125 C 19.640625 13.378906 19.863281 13.332031 20.097656 13.304688 C 20.714844 13.238281 21.945312 13.097656 22.335938 13.054688 C 22.847656 13.007812 22.847656 13.007812 22.847656 13.007812 C 22.847656 13.007812 22.417969 12.636719 21.871094 12.523438 C 21.320312 12.414062 21.167969 13.015625 20.5625 12.832031 C 19.957031 12.644531 19.679688 13.128906 19.425781 13.203125 C 19.175781 13.265625 18.902344 13.589844 18.960938 13.589844 Z M 17.476562 14.164062 C 17.792969 14.027344 18.121094 13.914062 18.464844 13.832031 C 18.109375 13.777344 17.738281 13.804688 17.382812 13.878906 C 17.03125 13.960938 16.683594 14.101562 16.359375 14.277344 C 16.199219 14.367188 16.042969 14.460938 15.890625 14.574219 C 15.742188 14.683594 15.59375 14.8125 15.472656 14.972656 C 15.351562 15.128906 15.257812 15.3125 15.21875 15.5 C 15.203125 15.589844 15.191406 15.695312 15.203125 15.796875 C 15.203125 15.839844 15.21875 15.886719 15.230469 15.933594 C 15.238281 15.960938 15.238281 15.980469 15.25 16.007812 C 15.257812 16.027344 15.265625 16.035156 15.277344 16.046875 C 15.285156 16.054688 15.3125 16.054688 15.3125 16.046875 C 15.304688 16.054688 15.296875 16.035156 15.296875 16.035156 C 15.296875 16.027344 15.296875 16.019531 15.296875 16.007812 C 15.304688 15.988281 15.3125 15.972656 15.3125 15.945312 C 15.332031 15.90625 15.339844 15.859375 15.359375 15.824219 C 15.398438 15.75 15.433594 15.675781 15.480469 15.609375 C 15.566406 15.480469 15.667969 15.359375 15.78125 15.25 C 15.890625 15.136719 16.011719 15.035156 16.144531 14.941406 C 16.273438 14.839844 16.414062 14.75 16.5625 14.65625 C 16.871094 14.460938 17.167969 14.304688 17.476562 14.164062 Z M 26.652344 14.203125 C 26.269531 14.101562 26.066406 14.027344 25.859375 14.007812 C 25.777344 14 25.691406 14.109375 25.597656 14.175781 C 25.738281 14.292969 25.871094 14.480469 26.027344 14.507812 C 26.160156 14.535156 26.328125 14.378906 26.652344 14.203125 Z M 26.652344 14.203125 "/>
</g>
<path style=" stroke:none;fill-rule:nonzero;fill:rgb(100%,100%,100%);fill-opacity:1;" d="M 18.046875 31.15625 C 18.242188 31.359375 18.445312 31.535156 18.671875 31.703125 C 18.289062 31.898438 17.925781 32.089844 17.5625 32.304688 L 17.179688 31.664062 C 17.261719 31.628906 17.355469 31.589844 17.441406 31.554688 C 17.523438 31.515625 17.597656 31.472656 17.683594 31.433594 C 17.765625 31.386719 17.839844 31.339844 17.90625 31.285156 C 17.960938 31.25 18.007812 31.203125 18.046875 31.15625 Z M 17.746094 29.367188 C 17.777344 29.480469 17.8125 29.589844 17.851562 29.691406 C 17.804688 29.589844 17.777344 29.480469 17.746094 29.367188 Z M 17.851562 29.691406 C 17.878906 29.765625 17.914062 29.851562 17.945312 29.921875 C 17.90625 29.851562 17.878906 29.777344 17.851562 29.691406 Z M 17.160156 30.332031 C 17.234375 30.292969 17.320312 30.265625 17.402344 30.238281 C 17.375 30.183594 17.347656 30.128906 17.320312 30.0625 C 17.253906 29.921875 17.207031 29.804688 17.167969 29.671875 C 16.871094 29.832031 16.5625 29.980469 16.253906 30.117188 L 16.5625 30.636719 C 16.648438 30.589844 16.730469 30.542969 16.816406 30.5 C 16.925781 30.441406 17.046875 30.386719 17.160156 30.332031 Z M 31.875 21.902344 C 31.875 21.917969 31.875 21.929688 31.867188 21.945312 C 31.867188 21.929688 31.875 21.917969 31.875 21.902344 Z M 19.324219 31.378906 C 19.203125 31.292969 19.089844 31.222656 18.976562 31.136719 C 19.089844 31.222656 19.210938 31.304688 19.324219 31.378906 Z M 17.457031 31.035156 C 17.53125 30.988281 17.609375 30.953125 17.691406 30.914062 C 17.730469 30.898438 17.765625 30.886719 17.804688 30.878906 C 17.71875 30.777344 17.636719 30.65625 17.5625 30.535156 C 17.496094 30.589844 17.429688 30.644531 17.355469 30.691406 C 17.253906 30.765625 17.140625 30.832031 17.03125 30.886719 C 16.953125 30.933594 16.871094 30.96875 16.785156 31.007812 L 16.984375 31.324219 C 17.066406 31.265625 17.140625 31.210938 17.226562 31.15625 C 17.308594 31.128906 17.382812 31.082031 17.457031 31.035156 Z M 33.589844 24.875 L 33.265625 21.179688 C 33.21875 21.207031 33.171875 21.222656 33.117188 21.253906 C 33.125 21.269531 33.125 21.28125 33.132812 21.296875 C 33.160156 21.382812 33.179688 21.472656 33.199219 21.566406 C 33.226562 21.742188 33.253906 21.917969 33.253906 22.09375 C 33.265625 22.269531 33.253906 22.449219 33.246094 22.625 C 33.246094 22.707031 33.253906 22.800781 33.246094 22.890625 C 33.246094 22.9375 33.238281 22.984375 33.226562 23.03125 C 33.21875 23.058594 33.207031 23.078125 33.199219 23.105469 C 33.191406 23.125 33.171875 23.152344 33.117188 23.152344 C 33.078125 23.113281 33.070312 23.097656 33.070312 23.066406 C 33.070312 23.050781 33.070312 23.03125 33.070312 23.011719 C 33.070312 22.976562 33.070312 22.9375 33.058594 22.890625 C 33.050781 22.808594 33.050781 22.726562 33.03125 22.632812 C 33.003906 22.457031 32.976562 22.289062 32.964844 22.113281 C 32.949219 21.9375 32.949219 21.769531 32.9375 21.59375 C 32.9375 21.511719 32.929688 21.4375 32.917969 21.355469 C 32.855469 21.390625 32.789062 21.417969 32.722656 21.457031 C 32.660156 22.140625 32.601562 22.847656 32.675781 23.578125 C 32.742188 24.179688 32.796875 24.800781 32.527344 25.355469 C 32.890625 25.191406 33.238281 25.03125 33.589844 24.875 Z M 31.15625 32.082031 C 31.269531 31.988281 31.378906 31.886719 31.503906 31.777344 C 31.324219 31.871094 31.195312 31.960938 31.089844 32.015625 C 31.121094 32.035156 31.136719 32.054688 31.15625 32.082031 Z M 30.429688 29.292969 C 30.429688 29.339844 30.421875 29.386719 30.410156 29.433594 C 30.421875 29.386719 30.429688 29.339844 30.429688 29.292969 Z M 29.488281 31.007812 C 29.535156 30.960938 29.582031 30.914062 29.628906 30.867188 C 29.675781 30.8125 29.722656 30.765625 29.765625 30.71875 C 29.722656 30.765625 29.683594 30.824219 29.628906 30.867188 C 29.582031 30.914062 29.535156 30.960938 29.488281 31.007812 Z M 12.300781 20.066406 C 12.273438 20.242188 12.246094 20.425781 12.199219 20.605469 C 12.152344 20.78125 12.097656 20.957031 12.050781 21.121094 C 12.023438 21.207031 12.003906 21.296875 11.984375 21.382812 C 11.976562 21.429688 11.957031 21.464844 11.949219 21.511719 L 11.917969 21.578125 C 11.910156 21.59375 11.890625 21.613281 11.835938 21.632812 C 11.824219 21.632812 11.824219 21.621094 11.824219 21.621094 L 11.535156 23.226562 C 11.855469 23.355469 12.171875 23.503906 12.488281 23.652344 C 12.441406 22.753906 12.46875 21.929688 12.515625 21.660156 C 12.609375 21.121094 12.582031 20.53125 12.601562 19.945312 C 12.515625 19.898438 12.421875 19.851562 12.339844 19.808594 C 12.328125 19.898438 12.3125 19.984375 12.300781 20.066406 Z M 30.148438 30.183594 C 30.09375 30.285156 30.019531 30.394531 29.933594 30.507812 C 30.019531 30.394531 30.085938 30.292969 30.148438 30.183594 Z M 30.765625 31.183594 C 30.261719 31.589844 30.261719 31.589844 30.261719 31.589844 C 30.261719 31.589844 30.390625 31.527344 30.617188 31.636719 C 30.664062 31.601562 30.710938 31.574219 30.746094 31.574219 C 30.953125 31.589844 31.148438 31.664062 31.519531 31.757812 C 32.023438 31.292969 32.574219 30.691406 32.601562 30.285156 C 32.277344 30.164062 31.949219 30.027344 31.632812 29.878906 C 31.546875 30.082031 31.203125 30.832031 30.765625 31.183594 Z M 13.160156 22.039062 C 13.195312 21.902344 13.234375 21.753906 13.273438 21.613281 C 13.242188 21.753906 13.195312 21.902344 13.160156 22.039062 Z M 16.253906 24.882812 C 16.238281 24.835938 16.21875 24.792969 16.207031 24.734375 C 16.226562 24.792969 16.238281 24.835938 16.253906 24.882812 Z M 16.199219 24.726562 C 16.199219 24.734375 16.199219 24.734375 16.199219 24.746094 C 16.207031 24.734375 16.207031 24.726562 16.199219 24.726562 Z M 16.199219 24.726562 C 16.171875 24.625 16.152344 24.511719 16.132812 24.402344 C 16.152344 24.511719 16.171875 24.613281 16.199219 24.726562 Z M 13.011719 23.921875 C 13 23.847656 12.992188 23.761719 12.984375 23.6875 C 12.992188 23.761719 13 23.835938 13.011719 23.921875 Z M 23.875 27.765625 C 23.546875 27.328125 23.027344 27.949219 23.042969 28.339844 C 23.035156 28.386719 23.035156 28.433594 23.042969 28.476562 C 23.070312 28.617188 23.195312 28.691406 23.324219 28.730469 C 23.484375 28.773438 23.660156 28.757812 23.800781 28.671875 C 23.949219 28.625 24.078125 28.523438 24.097656 28.347656 C 24.125 28.136719 24.042969 27.914062 23.875 27.765625 Z M 25.628906 27.726562 C 25.5625 27.765625 25.507812 27.820312 25.488281 27.894531 C 25.46875 27.960938 25.441406 28.035156 25.429688 28.109375 C 25.414062 28.246094 25.367188 28.488281 25.488281 28.582031 C 25.496094 28.589844 25.515625 28.597656 25.523438 28.609375 C 25.582031 28.636719 25.65625 28.644531 25.730469 28.644531 C 25.917969 28.636719 26.121094 28.550781 26.207031 28.421875 C 26.234375 28.375 26.253906 28.320312 26.253906 28.265625 C 26.289062 27.941406 25.964844 27.542969 25.628906 27.726562 Z M 22.753906 28.839844 C 22.597656 28.785156 22.113281 28.609375 22.007812 28.832031 C 21.980469 28.886719 21.992188 28.949219 22 29.023438 C 22.007812 29.082031 22.019531 29.136719 22.027344 29.183594 C 22.046875 29.3125 22.046875 29.460938 22.101562 29.582031 C 22.175781 29.738281 22.363281 29.851562 22.539062 29.746094 C 22.660156 29.671875 22.71875 29.527344 22.753906 29.378906 C 22.792969 29.21875 22.800781 29.042969 22.8125 28.914062 C 22.8125 28.894531 22.800781 28.875 22.792969 28.867188 C 22.78125 28.859375 22.773438 28.847656 22.753906 28.839844 Z M 22.753906 28.839844 "/>
<path style=" stroke:none;fill-rule:nonzero;fill:rgb(100%,100%,100%);fill-opacity:1;" d="M 22.027344 27.941406 C 22.027344 28.035156 22.027344 28.136719 22.027344 28.238281 C 22.027344 28.285156 22.019531 28.332031 22.007812 28.367188 C 21.992188 28.433594 21.972656 28.488281 21.945312 28.515625 C 21.792969 28.664062 21.355469 28.46875 21.253906 28.386719 C 21.214844 28.359375 21.226562 28.199219 21.273438 28.015625 C 21.28125 27.976562 21.292969 27.933594 21.308594 27.894531 C 21.382812 27.636719 21.503906 27.375 21.617188 27.367188 C 21.703125 27.359375 21.785156 27.414062 21.851562 27.488281 C 21.960938 27.617188 22.027344 27.773438 22.027344 27.941406 Z M 22.558594 27.664062 C 22.4375 27.691406 22.371094 27.792969 22.324219 27.902344 C 22.28125 27.976562 22.242188 28.0625 22.222656 28.136719 C 22.203125 28.191406 22.195312 28.257812 22.195312 28.320312 C 22.195312 28.375 22.203125 28.433594 22.234375 28.476562 C 22.242188 28.496094 22.25 28.507812 22.269531 28.523438 C 22.316406 28.5625 22.402344 28.589844 22.484375 28.597656 C 22.558594 28.609375 22.625 28.609375 22.679688 28.609375 C 22.71875 28.609375 22.746094 28.597656 22.773438 28.589844 C 22.859375 28.550781 22.90625 28.46875 22.894531 28.375 C 22.886719 28.3125 22.875 28.238281 22.859375 28.171875 C 22.875 27.921875 22.859375 27.597656 22.558594 27.664062 Z M 24.453125 28.738281 C 24.582031 28.832031 24.804688 28.859375 24.957031 28.820312 C 25.152344 28.773438 25.246094 28.617188 25.246094 28.441406 C 25.246094 28.339844 25.226562 28.226562 25.207031 28.117188 C 25.199219 28.015625 25.1875 27.914062 25.113281 27.839844 C 25.09375 27.820312 25.078125 27.800781 25.050781 27.792969 C 25.039062 27.773438 25.019531 27.757812 24.992188 27.746094 C 24.835938 27.691406 24.65625 27.664062 24.515625 27.773438 C 24.367188 27.894531 24.339844 28.082031 24.3125 28.257812 C 24.304688 28.421875 24.273438 28.617188 24.453125 28.738281 Z M 26.8125 27.414062 C 26.664062 27.273438 26.457031 27.328125 26.429688 27.535156 C 26.410156 27.652344 26.429688 27.773438 26.449219 27.886719 C 26.457031 27.96875 26.457031 28.070312 26.476562 28.152344 C 26.484375 28.183594 26.484375 28.210938 26.496094 28.246094 C 26.496094 28.257812 26.503906 28.265625 26.503906 28.273438 C 26.578125 28.441406 26.800781 28.507812 26.953125 28.359375 C 26.96875 28.339844 26.980469 28.320312 26.996094 28.300781 C 27.082031 28.210938 27.121094 28.097656 27.109375 27.988281 C 27.109375 27.949219 27.101562 27.902344 27.089844 27.867188 C 27.042969 27.699219 26.941406 27.523438 26.8125 27.414062 Z M 21.1875 28.644531 C 21.140625 28.757812 21.179688 29.46875 21.292969 29.570312 C 21.609375 29.878906 21.777344 29.257812 21.804688 28.933594 C 21.8125 28.875 21.8125 28.832031 21.804688 28.792969 C 21.785156 28.644531 21.234375 28.550781 21.1875 28.644531 Z M 23.976562 29.023438 C 23.976562 29.015625 23.96875 29.007812 23.949219 28.996094 C 23.863281 28.980469 23.6875 28.941406 23.519531 28.933594 C 23.425781 28.921875 23.332031 28.933594 23.25 28.949219 C 23.15625 28.96875 23.082031 29.007812 23.042969 29.082031 C 22.988281 29.183594 23.042969 29.332031 23.054688 29.433594 C 23.054688 29.460938 23.0625 29.496094 23.0625 29.527344 C 23.070312 29.589844 23.082031 29.664062 23.101562 29.730469 C 23.109375 29.765625 23.128906 29.792969 23.148438 29.820312 C 23.15625 29.832031 23.164062 29.851562 23.175781 29.859375 C 23.277344 29.988281 23.484375 30.054688 23.679688 29.941406 C 23.714844 29.914062 23.753906 29.894531 23.78125 29.859375 C 23.875 29.757812 23.921875 29.628906 23.949219 29.496094 C 23.957031 29.441406 23.96875 29.394531 23.976562 29.339844 C 23.976562 29.332031 23.976562 29.3125 23.984375 29.304688 C 23.996094 29.257812 23.996094 29.210938 23.996094 29.171875 C 23.996094 29.136719 24.003906 29.109375 24.003906 29.082031 C 23.996094 29.054688 23.984375 29.035156 23.976562 29.023438 Z M 26.988281 28.609375 C 26.820312 28.597656 26.476562 28.683594 26.464844 28.792969 C 26.464844 28.8125 26.464844 28.832031 26.464844 28.859375 C 26.476562 29.15625 26.632812 29.90625 26.980469 29.582031 C 27.089844 29.480469 27.128906 28.757812 27.082031 28.65625 C 27.074219 28.625 27.035156 28.617188 26.988281 28.609375 Z M 25.507812 28.839844 C 25.488281 28.847656 25.476562 28.859375 25.476562 28.867188 C 25.46875 28.875 25.460938 28.894531 25.460938 28.914062 C 25.46875 29.023438 25.476562 29.164062 25.496094 29.304688 C 25.523438 29.488281 25.589844 29.664062 25.71875 29.746094 C 25.886719 29.859375 26.085938 29.738281 26.160156 29.582031 C 26.214844 29.460938 26.214844 29.3125 26.234375 29.183594 C 26.242188 29.117188 26.261719 29.023438 26.261719 28.941406 C 26.261719 28.90625 26.261719 28.867188 26.242188 28.832031 C 26.148438 28.609375 25.664062 28.785156 25.507812 28.839844 Z M 25.058594 28.960938 C 24.984375 28.941406 24.898438 28.933594 24.816406 28.933594 C 24.628906 28.933594 24.425781 28.980469 24.320312 28.996094 C 24.304688 28.996094 24.292969 29.015625 24.292969 29.023438 C 24.273438 29.035156 24.265625 29.042969 24.273438 29.070312 C 24.273438 29.109375 24.285156 29.144531 24.285156 29.191406 C 24.285156 29.230469 24.292969 29.265625 24.292969 29.3125 C 24.292969 29.320312 24.292969 29.320312 24.292969 29.332031 C 24.304688 29.378906 24.304688 29.421875 24.3125 29.460938 C 24.339844 29.589844 24.378906 29.710938 24.453125 29.8125 C 24.488281 29.859375 24.535156 29.90625 24.59375 29.941406 C 24.796875 30.0625 25.019531 29.980469 25.113281 29.839844 C 25.113281 29.839844 25.125 29.832031 25.125 29.832031 C 25.140625 29.804688 25.152344 29.765625 25.171875 29.738281 C 25.199219 29.644531 25.207031 29.542969 25.21875 29.460938 C 25.21875 29.453125 25.21875 29.453125 25.21875 29.441406 C 25.226562 29.339844 25.28125 29.191406 25.226562 29.089844 C 25.199219 29.023438 25.132812 28.988281 25.058594 28.960938 Z M 21.367188 21.917969 C 21.421875 21.890625 21.46875 21.871094 21.523438 21.835938 C 21.625 21.78125 21.730469 21.714844 21.8125 21.632812 C 21.898438 21.546875 21.980469 21.457031 22.019531 21.34375 C 21.945312 21.429688 21.851562 21.492188 21.757812 21.546875 C 21.664062 21.605469 21.5625 21.640625 21.457031 21.679688 C 21.355469 21.707031 21.246094 21.753906 21.152344 21.761719 C 21.105469 21.769531 21.046875 21.769531 21.003906 21.78125 C 20.957031 21.78125 20.898438 21.78125 20.851562 21.769531 C 20.65625 21.753906 20.441406 21.667969 20.226562 21.613281 C 20.011719 21.546875 19.78125 21.492188 19.546875 21.464844 C 19.425781 21.457031 19.3125 21.445312 19.191406 21.445312 C 19.070312 21.445312 18.96875 21.445312 18.867188 21.4375 C 18.753906 21.429688 18.652344 21.417969 18.558594 21.390625 C 18.464844 21.363281 18.382812 21.328125 18.324219 21.253906 C 18.269531 21.1875 18.242188 21.085938 18.222656 20.972656 C 18.214844 20.917969 18.195312 20.863281 18.1875 20.808594 C 18.175781 20.761719 18.167969 20.707031 18.175781 20.660156 C 18.1875 20.445312 18.269531 20.234375 18.371094 20.039062 C 18.296875 20.121094 18.234375 20.222656 18.1875 20.316406 C 18.128906 20.417969 18.082031 20.53125 18.066406 20.640625 C 18.054688 20.695312 18.046875 20.761719 18.054688 20.824219 L 18.074219 20.992188 C 18.082031 21.105469 18.101562 21.234375 18.175781 21.355469 C 18.25 21.472656 18.382812 21.539062 18.492188 21.585938 C 18.613281 21.621094 18.726562 21.652344 18.847656 21.660156 C 18.960938 21.679688 19.089844 21.679688 19.191406 21.679688 C 19.304688 21.679688 19.40625 21.695312 19.519531 21.707031 C 19.734375 21.734375 19.9375 21.789062 20.152344 21.855469 C 20.367188 21.917969 20.589844 22.003906 20.84375 22.011719 C 20.964844 22.019531 21.09375 22.003906 21.214844 21.964844 C 21.261719 21.964844 21.320312 21.945312 21.367188 21.917969 Z M 30.421875 20.621094 C 30.410156 20.566406 30.390625 20.511719 30.382812 20.457031 C 30.363281 20.398438 30.355469 20.34375 30.328125 20.296875 C 30.300781 20.25 30.28125 20.1875 30.222656 20.167969 C 30.269531 20.207031 30.28125 20.261719 30.289062 20.316406 C 30.300781 20.371094 30.308594 20.417969 30.316406 20.472656 C 30.328125 20.53125 30.328125 20.585938 30.328125 20.640625 L 30.328125 20.714844 L 30.308594 20.789062 C 30.253906 20.984375 30.09375 21.121094 29.90625 21.222656 C 29.722656 21.316406 29.515625 21.371094 29.3125 21.390625 C 29.207031 21.402344 29.105469 21.410156 28.992188 21.410156 C 28.882812 21.410156 28.761719 21.410156 28.648438 21.417969 C 28.414062 21.4375 28.191406 21.484375 27.976562 21.546875 C 27.761719 21.605469 27.546875 21.679688 27.351562 21.726562 C 27.25 21.742188 27.15625 21.753906 27.0625 21.742188 C 26.96875 21.734375 26.867188 21.714844 26.765625 21.679688 C 26.570312 21.605469 26.382812 21.492188 26.234375 21.328125 C 26.390625 21.742188 26.894531 22.050781 27.390625 21.976562 C 27.632812 21.945312 27.835938 21.871094 28.050781 21.816406 C 28.257812 21.753906 28.472656 21.707031 28.675781 21.6875 C 28.777344 21.679688 28.882812 21.667969 28.992188 21.660156 C 29.105469 21.660156 29.226562 21.640625 29.339844 21.621094 C 29.570312 21.585938 29.796875 21.511719 30 21.382812 C 30.101562 21.316406 30.1875 21.234375 30.261719 21.140625 C 30.335938 21.046875 30.390625 20.9375 30.410156 20.808594 L 30.421875 20.714844 Z M 30.421875 20.621094 "/>
</g>
</svg>
